<svg xmlns="http://www.w3.org/2000/svg" width="256" height="256"><g clip-rule="evenodd" fill-rule="nonzero" stroke-linejoin="round" stroke-miterlimit="1.414" fill="#FFFFFF"><path d="M108.196.638c-2.683.444-5.187 1.154-5.634 1.598-.447.444.715 3.018 2.415 5.682 4.382 6.835 10.195 21.038 17.172 42.52 6.409 18.065 12.416 38.642 20.123 53.883 2.762 4.449 6.964 11.049 11.806 11.097 8.317 0 14.31-11.63 29.603-57.612 5.277-15.623 10.375-30.448 11.448-33.022 1.52-3.729 1.7-4.883.805-5.948-1.52-1.775-17.977-9.764-26.026-12.516-14.489-5.06-20.66-6.037-39.352-6.303-9.57-.089-19.677.178-22.36.621zM73.495 11.646C56.68 19.636 41.298 31.53 29.76 45.378 3.376 77.335-6.372 121.098 4.181 159.98l1.52 5.415 4.562-5.859c11.537-14.913 21.286-30.36 28.44-44.917 12.913-23.07 19.48-43.506 25.67-62.14 7.154-21.57 12.431-35.33 15.65-41.1 1.163-2.041 2.058-3.728 1.968-3.728-.09 0-3.935 1.776-8.496 3.995zM245.84 89.053c-20.306 25.14-38.134 52.847-50.085 83-9.446 26.3-16.681 51.205-28.262 77.85l5.635-2.13c41.856-15.623 72.265-52.196 80.94-97.203 3.577-18.197 2.057-44.207-3.488-60.274l-1.61-4.705zM86.553 148.884c-5.514 6.423-8.192 13.889-11.448 21.66-6.694 18.04-12.21 36.704-18.782 54.682l-2.594 7.101 5.545 3.551c22.27 14.203 50.532 21.571 76.29 19.885l9.033-.622-2.951-4.882c-4.204-7.013-8.407-17.932-17.977-46.427-6-15.886-13.344-44.848-24.416-56.28-5.098-4.527-7.334-4.26-12.7 1.332z"/></g></svg>